<?xml version="1.0" encoding="UTF-8"?>
<svg id="Layer_1" xmlns="http://www.w3.org/2000/svg" version="1.1" viewBox="0 0 122 84">
  <!-- Generator: Adobe Illustrator 29.4.0, SVG Export Plug-In . SVG Version: 2.1.0 Build 152)  -->
  <defs>
    <style>
      .st0 {
        fill: #fff;
      }
    </style>
  </defs>
  <path class="st0" d="M7.8,42c.3,1.6.7,3,1.3,4.3.2.6.6,1.1,1,1.6.6.7,1,.8,1.8.5.5-.2,1-.6,1.5-1,.6-.7,1.2-1.5,1.4-2.5.1-.2.2-.4.3-.5.3-.4.7-.7,1.3-.5.7.2,1.1.7,1.3,1.3.1.5.2,1,0,1.5-.7,2-1.6,3.8-3.3,5.1-1.1.8-2.4,1.2-3.9,1-.2,0-.5,0-.7-.2-1.8-.5-3.4-1.5-4.7-2.9-1.5-1.5-2.5-3.3-3.2-5.2-.3-.8-.4-1.6-.5-2.4-.2-2-.1-3.9.2-5.8.3-2,1-3.9,2.2-5.4,1.3-1.6,3-2.6,5.2-2.9.7-.1,1.3-.2,2.1-.2,1.5,0,3,.4,4.4,1.2,1.1.6,2,1.3,2.7,2.3,1.1,1.5,1.3,3.1,1,4.7-.2.8-.7,1.5-1.6,1.8-.5.2-1,.2-1.5,0-.5-.2-.8-.5-1.2-.8-.5-.6-1.1-1.1-1.6-1.8-.3-.4-.7-.7-1.2-.7-.3,0-.6,0-1,0-.8,0-1.4.3-1.8.9-.3.5-.7,1-.8,1.5-.5,1.7-.7,3.5-.5,5.2ZM28.5,46.3c0,1,.2,1.9.2,2.7,0,1.2-.3,2.3-1.2,3.1-1.1,1-2.8,1.1-4,0-.7-.6-1-1.3-1.2-2.1,0-.5-.2-1-.2-1.5,0-.8,0-1.8,0-2.6-.2-1.5,0-3.1-.3-4.5v-.4c0-1.4-.2-2.9-.3-4.3,0-1.2-.2-2.3-.3-3.6,0-.1,0-.3,0-.5,0-.8,0-1.7.1-2.5.2-.5.3-1.1.5-1.5,1-1.4,2.9-1.7,4.2-.2.4.4.7.9.9,1.4.5,1.4.8,2.8.9,4.2,0,1.5.2,3.1.4,4.6,0,.2,0,.2.3.1.5-.3.9-.6,1.4-.8,2-.9,3.8-.6,5.5.7.7.6,1.3,1.3,1.8,2.1.8,1.2,1,2.5.8,3.9-.1.8-.1,1.6-.3,2.4-.3,1-.4,2-.7,3-.2.7-.4,1.2-.9,1.7-.9.8-2,1.1-3.2.8-1.1-.3-1.9-1.1-2.2-2.3,0-.5-.1-1,0-1.5.2-1.1.5-2.3.7-3.4,0-.4,0-.8,0-1.3-.1-.5-.1-1.1-.4-1.5,0-.2-.1-.3-.2-.4,0,0-.2,0-.4,0-.1,0-.2.2-.3.2-.5.5-.9,1.1-1.2,1.7-.1.2-.2.5-.2.7v1.8ZM46.6,42.9v1.5c0,1-.1,2.1-.2,3.2-.2,1.5-1,2.5-2.4,2.8-1.2.3-2.3.1-3.3-1-.5-.6-.8-1.2-.8-2,0-1.2,0-2.4,0-3.5.1-.7.1-1.4.1-2.1,0-1.6.6-3,1.6-4.3,1.1-1.3,2.9-1.1,3.8.2.7,1.1,1.2,2.3,1.2,3.6,0,.5,0,1.1,0,1.8h0ZM43.6,30.2c1.3,0,2.3,1.2,2.1,2.2-.1,1.4-.9,2.2-2.2,2.2-1.3,0-2.2-1.1-2.1-2.4,0-1,.9-2.2,2.3-2ZM49,42.5c-.2-2.8.7-5,2.5-6.9,1-1,2-1.8,3.4-2.1,1.4-.3,2.7-.2,3.9.7.9.7,1.3,1.6,1.6,2.6.2.6.2,1.2,0,1.8,0,.8-.2,1.7-.5,2.5-.5,1.4-1.5,2.3-2.9,2.7-.6,0-1.2,0-1.8,0-.7-.2-.7-.2-.7.7,0,.7,0,1.3.2,2,.1.2.2.4.4.6,0,.2.2.2.3,0,.3-.3.5-.6.8-.9.3-.3.5-.7.9-.8.7-.4,1.8,0,1.8.9.1.3.1.7,0,1-.3,1.1-.8,2-1.6,2.7-1.3,1.1-3.4,1.2-4.7.2-1.3-1-2.2-2.3-2.8-3.7-.5-1.3-.7-2.7-.7-3.9ZM57.4,39.7v-.7c0-.3-.2-.5-.5-.7-.3,0-.5,0-.8.2-.6.6-.9,1.3-1.1,2.1,0,.2,0,.3.2.3.4.1.8.2,1.1.1.4-.1.7-.3.8-.7,0-.3.1-.6.2-.7ZM80.6,43.9c0,1.3-.2,2.6-.3,3.8-.2.8-.2,1.6-.3,2.4-.3,1.4-1,2.3-2.4,2.8-1,.3-2,.1-2.8-.5-.9-.7-1.3-1.6-1.3-2.7,0-.7,0-1.4.2-2.1.5-2.3,1-4.4,1.4-6.7.2-.7.3-1.4.3-2.1,0-.6-.3-1.1-1-1.1-.8,0-1.5.2-2.2.5-.8.5-1.5,1.1-2,2-.3.5-.5,1-.8,1.4-.3.6-.5,1.2-.4,1.9.1,1.8.2,3.6.2,5.3,0,.7,0,1.2-.2,1.8-.5,1.3-1.5,2-2.8,2.1-1.4.2-2.4-.4-3.1-1.6-.3-.5-.4-1.1-.5-1.6-.2-1.6-.2-3.1-.2-4.6,0-.8-.1-1.6-.2-2.4h0c0-1.7-.2-3.3-.2-4.9,0-.2,0-.4,0-.6,0-1.5,1.1-2.8,2.5-3.1,1.7-.3,3.3.6,3.8,2.1.2.5.3,1,.3,1.5s0,0,0,.1c0,0,.1,0,.2,0,.7-.7,1.4-1.3,2.1-1.6.5-.3,1-.6,1.5-.8,2.1-1,4.3-.4,5.8,1.3.5.5.8,1.1,1.1,1.7.5,1.1,1,2.2,1.1,3.5,0,.2.1.4.1.6,0,.6,0,1.1,0,1.7ZM83,43.8c0-2.6.5-5.1,1.5-7.5.4-1.1,1-2.1,1.8-3.1.6-.8,1.4-1.6,2.2-2.3,2-1.5,4.2-2.6,6.7-3.2,1.1-.2,2.1-.2,3.2,0,1.1.2,2.1.8,2.9,1.6,1.1,1.1,1.6,2.6,1.5,4.2,0,.5-.2.9-.4,1.3-.4.6-1.3.8-2,.4-.3-.2-.5-.3-.8-.5-.5-.3-1.1-.5-1.8-.6-1.3,0-2.4.3-3.5.9-2,1-3.3,2.4-4,4.5,0,.3-.2.6-.3.9-.3.9-.4,1.8-.5,2.7-.2,1.5.3,2.9,1,4.2.4.7.8,1.5,1.3,2.2.2.3.4.6.7.9.5.5,1.1.5,1.8.2.8-.4,1.5-1,2-1.7,1-1.1,1.5-2.5,1.7-4v-.4c0-.2-.1-.3-.3-.3-.4,0-.8,0-1.3,0s-1.1,0-1.6-.2c-1-.3-2-1.5-1.8-3,.2-1.1,1.2-2.2,2.5-2.3.8,0,1.5,0,2.3,0,.6,0,1.1,0,1.7.2.7.2,1.4.4,1.9,1,.5.5.7,1,.7,1.7v.3c-.2,1.9-.3,3.8-.8,5.6-.6,2.1-1.6,3.9-2.9,5.5-.6.7-1.3,1.3-2.1,1.8-1.8,1.1-3.8,1.2-5.8.5-2.4-.9-4.1-2.5-5.4-4.6-1-1.7-1.5-3.5-1.8-5.4,0-.6,0-1.1,0-1.7ZM120,42.4c0,1.3,0,2.5-.4,3.6-.2.4-.3.8-.5,1.3-.5,1-1.1,2-1.7,2.9-.4.5-.9,1-1.5,1.3-1.3.8-2.7,1.2-4.2,1.3-1.6,0-2.9-.4-4.2-1.3-.5-.4-1-.9-1.4-1.4-.7-.8-1-1.8-1.2-2.9-.3-3.3.5-6.3,2.2-9.1.5-.9,1.2-1.8,2.1-2.3,0,0,.2-.1.3-.2,1-.3,1.8-.8,2.8-1,.8-.2,1.5-.2,2.3,0,.5,0,1,.3,1.6.5,1,.3,1.8,1.1,2.4,2.1.4.9.8,1.8,1.1,2.8.3.9.3,1.8.3,2.5ZM117,43c0-.4,0-.8,0-1.2-.8-2.8-2.6-4.4-4.4-.7-.8,1.5-1.2,3.5-1.2,4.6s.2,1.4.3,2.1c.3,1.2,2.3,2.1,3.3.8.2-.3.5-.6.7-.9.2-.4.5-.9.7-1.4.5-1,.7-2.1.7-3.3Z"/>
  <path class="st0" d="M60.5,58c-14.7,0-26.5,10.9-26.5,20.5,0,9.6,11.9,1.8,26.6,1.8s26.6,7.8,26.6-1.8c0-9.6-12-20.5-26.7-20.5Z"/>
  <path class="st0" d="M53.2,18.6c2.8-1.1,3.2-7.4,1.7-11.6-1.5-4.3-5-6.8-7.8-5.8-2.8,1.1-3.9,5.4-2.4,9.6,1.5,4.2,5.7,8.8,8.5,7.8Z"/>
  <path class="st0" d="M67.7,18.5c3,.3,5.8-5.2,6.1-9.7.3-4.5-1.9-8.4-4.8-8.8-3-.3-5.7,3.1-6,7.6-.3,4.5,1.7,10.6,4.7,10.9"/>
  <path class="st0" d="M89.9,5.4c-2.8-1.4-6.3.9-7.9,5-1.6,4.1-1.4,10.6,1.3,11.9,2.8,1.4,7-2.8,8.6-7s.7-8.6-2.1-10"/>
  <path class="st0" d="M27.2,6.5c-2.6,1.5-2.9,6-.7,9.9,2.2,3.9,7.1,7.7,9.7,6.1,2.6-1.5,1.9-7.8-.3-11.7-2.2-3.9-6.1-5.8-8.7-4.3"/>
</svg>