<svg width="122" height="84" viewBox="0 0 122 84" fill="none" xmlns="http://www.w3.org/2000/svg">
<path d="M7.80944 41.9843C8.07741 43.5921 8.46023 44.9702 9.07274 46.3101C9.30242 46.8843 9.64696 47.4202 10.0681 47.9179C10.6423 48.607 11.0634 48.7218 11.829 48.3773C12.365 48.1476 12.8626 47.8031 13.2837 47.3437C13.8579 46.6163 14.4704 45.8507 14.7001 44.8937C14.815 44.7023 14.8533 44.5108 14.9681 44.3577C15.2744 43.9366 15.6954 43.6687 16.308 43.8601C16.997 44.0515 17.4564 44.5108 17.5712 45.1999C17.6861 45.7359 17.7244 46.2335 17.5712 46.7312C16.9205 48.7601 15.9251 50.5211 14.2407 51.7843C13.1306 52.5883 11.8673 52.9711 10.336 52.7797C10.1063 52.7414 9.87665 52.7031 9.64696 52.6265C7.80944 52.1289 6.27818 51.1336 4.97661 49.7171C3.52191 48.1859 2.45002 46.3866 1.76095 44.4726C1.49298 43.6687 1.33986 42.8647 1.22501 42.0608C1.0336 40.0702 1.11017 38.1561 1.4547 36.2803C1.79923 34.2514 2.41174 32.4139 3.63675 30.8443C4.90004 29.2365 6.62271 28.2029 8.80476 27.8966C9.45555 27.7818 10.1446 27.6669 10.872 27.7435C12.365 27.8201 13.8962 28.1646 15.3126 28.9302C16.3845 29.5045 17.3033 30.2701 17.9923 31.2654C19.1025 32.7584 19.3322 34.3279 19.0259 35.9358C18.8728 36.778 18.2986 37.4288 17.4564 37.6967C16.9587 37.8881 16.4611 37.8499 15.9251 37.6202C15.4658 37.4288 15.0829 37.1608 14.7001 36.8162C14.1642 36.242 13.6282 35.6678 13.1306 35.0553C12.786 34.6725 12.4032 34.4045 11.9056 34.4045C11.5993 34.4428 11.2931 34.4045 10.9485 34.4045C10.1829 34.4045 9.5704 34.7108 9.1493 35.285C8.80476 35.7444 8.49851 36.242 8.34539 36.778C7.80944 38.5006 7.65632 40.2999 7.80944 41.9843ZM28.4582 46.3484C28.4965 47.3437 28.6113 48.2242 28.6113 49.0664C28.6496 50.2914 28.3433 51.325 27.3863 52.2054C26.2378 53.239 24.5534 53.2773 23.3667 52.2054C22.7159 51.6312 22.3331 50.9422 22.18 50.0617C22.1034 49.564 22.0269 49.0281 22.0269 48.5304C22.0269 47.6882 22.0651 46.7312 21.9503 45.889C21.7589 44.396 21.912 42.8265 21.6058 41.3718C21.6058 41.2186 21.6058 41.1421 21.6058 40.9889C21.5292 39.5725 21.4526 38.1178 21.3378 36.6631C21.2995 35.4764 21.1081 34.3279 21.0315 33.1029C20.9933 32.9881 20.9933 32.7967 21.0315 32.567C21.0698 31.7248 21.0698 30.8443 21.1464 30.0404C21.2995 29.5045 21.4144 28.9685 21.6823 28.5474C22.6394 27.1693 24.5534 26.8248 25.8933 28.3177C26.2761 28.7388 26.5824 29.1982 26.7738 29.7342C27.2714 31.1123 27.5777 32.5287 27.6925 33.9834C27.7308 35.5147 27.9222 37.0459 28.0754 38.5772C28.0754 38.7686 28.1519 38.8069 28.3433 38.692C28.8027 38.3858 29.2621 38.0795 29.7597 37.8499C31.7504 36.9694 33.5879 37.2756 35.234 38.5772C35.9614 39.1514 36.5356 39.8788 36.995 40.6444C37.7606 41.8311 37.9903 43.1327 37.7989 44.5491C37.684 45.3148 37.684 46.1187 37.4926 46.9226C37.2247 47.9179 37.0715 48.9515 36.8418 49.9085C36.6887 50.5593 36.4207 51.0953 35.9231 51.5929C35.0043 52.4351 33.8942 52.6648 32.7457 52.3586C31.5973 52.0523 30.8316 51.2101 30.5254 50.0617C30.4488 49.564 30.4105 49.0664 30.4871 48.5304C30.7168 47.382 30.9848 46.2718 31.1762 45.1616C31.2144 44.7405 31.2144 44.3194 31.1762 43.8983C31.0613 43.3624 31.0613 42.8265 30.7551 42.4436C30.7168 42.2522 30.6402 42.1374 30.5254 42.0608C30.4488 41.9843 30.2957 41.9843 30.1426 41.9843C30.0277 42.0225 29.9129 42.1374 29.798 42.214C29.2621 42.7116 28.9175 43.2858 28.6113 43.8983C28.4965 44.0897 28.4582 44.396 28.4582 44.5874C28.4582 45.1999 28.4582 45.8507 28.4582 46.3484ZM46.6135 42.903C46.6135 43.3624 46.6135 43.8601 46.6135 44.3577C46.5369 45.3913 46.4987 46.5015 46.4221 47.5734C46.1924 49.0281 45.3885 50.0234 44.0104 50.4062C42.8236 50.7507 41.6752 50.5211 40.7181 49.3726C40.1822 48.7984 39.9142 48.1476 39.9525 47.3437C39.9525 46.1187 39.9142 44.9702 40.0291 43.8218C40.1439 43.0944 40.1439 42.4436 40.1439 41.678C40.1439 40.0702 40.7564 38.6538 41.7135 37.3905C42.8236 36.0506 44.6611 36.2803 45.4651 37.5436C46.1924 38.6155 46.6901 39.8022 46.6901 41.1421C46.6518 41.678 46.6518 42.2905 46.6518 42.903H46.6135ZM43.5893 30.2318C44.8908 30.1935 45.8479 31.4568 45.6947 32.4139C45.5799 33.792 44.8143 34.5959 43.4744 34.6342C42.2111 34.6342 41.2924 33.524 41.3306 32.2607C41.4072 31.2654 42.2111 30.0787 43.5893 30.2318ZM48.9995 42.4819C48.8464 39.6874 49.6886 37.5053 51.4495 35.6295C52.4066 34.5959 53.4785 33.792 54.8183 33.524C56.1965 33.1795 57.498 33.3709 58.6848 34.2514C59.5652 34.9404 60.0246 35.8975 60.3309 36.8545C60.484 37.467 60.484 38.0413 60.3692 38.6155C60.2926 39.4577 60.1395 40.2999 59.8715 41.1038C59.3356 42.4819 58.4168 43.3624 56.9621 43.7835C56.3496 43.8601 55.7754 43.8601 55.1629 43.7452C54.5121 43.5538 54.4738 43.5921 54.4738 44.396C54.3972 45.0468 54.3972 45.6976 54.6652 46.3484C54.78 46.5781 54.8566 46.7312 55.048 46.9609C55.0863 47.1523 55.2394 47.1523 55.316 47.0374C55.6222 46.7312 55.8519 46.4632 56.0816 46.157C56.3496 45.8507 56.6176 45.4679 56.9621 45.3148C57.6512 44.8937 58.723 45.353 58.7996 46.1952C58.9145 46.5015 58.9145 46.846 58.7613 47.1523C58.4934 48.2242 57.9957 49.1046 57.1535 49.8703C55.8519 51.0187 53.7847 51.057 52.4449 50.0617C51.105 49.1046 50.2245 47.8031 49.6503 46.3866C49.1527 45.0468 48.9612 43.6687 48.9995 42.4819ZM57.3832 39.6874C57.3832 39.3428 57.3832 39.1897 57.3832 39.0366C57.3449 38.7686 57.1918 38.5772 56.9238 38.3858C56.6176 38.3092 56.3879 38.3858 56.1582 38.6155C55.5457 39.1897 55.2777 39.9171 55.0863 40.6827C55.0863 40.8358 55.1629 40.9507 55.2777 40.9889C55.6605 41.1038 56.0433 41.1421 56.4262 41.1038C56.809 40.9889 57.1152 40.7593 57.2301 40.3764C57.2683 40.1085 57.3449 39.8022 57.3832 39.6874ZM80.607 43.8983C80.6452 45.1999 80.4155 46.4632 80.3007 47.7265C80.1476 48.5304 80.1476 49.3343 79.9945 50.1C79.6882 51.4781 78.9608 52.4351 77.621 52.8945C76.5874 53.2008 75.6686 53.0094 74.8647 52.3969C73.9842 51.7078 73.5249 50.8273 73.5631 49.7171C73.5631 48.9898 73.6397 48.3007 73.7546 47.6499C74.2522 45.3913 74.7499 43.2093 75.1327 40.9507C75.2858 40.2999 75.4389 39.5725 75.4389 38.8452C75.4007 38.2709 75.0944 37.7733 74.4053 37.735C73.6014 37.6967 72.8741 37.8881 72.2233 38.2709C71.4577 38.8069 70.692 39.4194 70.1944 40.2233C69.8881 40.6827 69.6584 41.1803 69.3522 41.6397C69.0076 42.214 68.8928 42.8265 68.9311 43.5538C69.0459 45.3148 69.0842 47.114 69.1608 48.8749C69.1608 49.5257 69.199 50.1 69.0076 50.6742C68.51 51.9758 67.4764 52.6648 66.2514 52.7797C64.8732 52.9328 63.8779 52.3586 63.1506 51.1718C62.8443 50.6359 62.7295 50.0617 62.6529 49.5257C62.4998 47.9562 62.4998 46.4249 62.4232 44.8937C62.4232 44.0897 62.3084 43.3241 62.2701 42.5202C62.2701 42.4819 62.2701 42.4819 62.2701 42.4436C62.1935 40.8358 62.0787 39.2663 62.0404 37.6202C62.0021 37.3905 62.0021 37.2373 62.0021 37.0077C62.0787 35.5147 63.074 34.2131 64.4904 33.8686C66.1748 33.524 67.7443 34.4811 68.2803 35.9741C68.4717 36.4334 68.5483 36.9694 68.5483 37.5053C68.5483 37.5436 68.5865 37.5819 68.6248 37.6202C68.6631 37.6202 68.7397 37.6202 68.7779 37.5819C69.4287 36.9311 70.1561 36.3186 70.9217 35.9358C71.3811 35.6295 71.8788 35.3615 72.4147 35.0936C74.5202 34.1365 76.7405 34.7108 78.2335 36.4334C78.7312 36.9694 79.0757 37.5053 79.3437 38.1561C79.803 39.3046 80.3007 40.3764 80.4921 41.6397C80.4921 41.8311 80.607 42.0225 80.607 42.214C80.6452 42.7882 80.607 43.3241 80.607 43.8983ZM82.9828 43.8218C82.9445 41.2186 83.5187 38.7303 84.5141 36.3569C84.9352 35.2467 85.5094 34.2131 86.275 33.2561C86.8875 32.4139 87.6532 31.6482 88.4571 30.9974C90.4477 29.4662 92.668 28.356 95.1563 27.8201C96.2282 27.6287 97.3001 27.5904 98.372 27.7435C99.5204 27.9349 100.477 28.5474 101.281 29.3896C102.392 30.5381 102.889 31.9545 102.736 33.6006C102.698 34.06 102.545 34.4811 102.315 34.9022C101.894 35.5147 101.013 35.7061 100.363 35.3233C100.095 35.1701 99.8267 34.9787 99.597 34.7873C99.0611 34.4428 98.4486 34.2514 97.7978 34.2131C96.5345 34.1365 95.386 34.5194 94.2759 35.0936C92.3235 36.0506 90.9454 37.5053 90.2946 39.6108C90.218 39.9171 90.1032 40.2233 90.0266 40.5296C89.7586 41.41 89.6055 42.2905 89.4907 43.2093C89.3375 44.7023 89.7586 46.1187 90.4477 47.4585C90.8305 48.1859 91.2516 48.9132 91.711 49.6406C91.9024 49.9468 92.1321 50.2531 92.4384 50.5211C92.936 50.9804 93.5485 51.0187 94.1993 50.7507C95.0415 50.3679 95.654 49.7554 96.19 49.0664C97.147 47.9179 97.6447 46.5398 97.9126 45.0468C97.9126 44.9319 97.9126 44.7788 97.9126 44.6257C97.9126 44.4343 97.7978 44.3194 97.5681 44.3577C97.147 44.3577 96.7259 44.396 96.3048 44.396C95.7306 44.396 95.1946 44.3577 94.6587 44.1663C93.6251 43.8218 92.668 42.6733 92.8595 41.1803C93.0126 40.0319 94.0845 38.9983 95.3095 38.8835C96.0751 38.8069 96.8407 38.8835 97.6064 38.9217C98.1806 38.9217 98.7165 38.9983 99.2908 39.1131C100.018 39.2663 100.669 39.5342 101.205 40.1085C101.664 40.6061 101.932 41.1421 101.932 41.7929C101.932 41.9077 101.932 42.0225 101.932 42.1374C101.741 44.0132 101.588 45.889 101.09 47.7265C100.516 49.7937 99.5204 51.6312 98.1423 53.239C97.5298 53.9664 96.8025 54.5789 95.9985 55.0766C94.161 56.1867 92.2087 56.2633 90.218 55.5742C87.8446 54.6937 86.0836 53.0859 84.8203 50.9422C83.825 49.2578 83.2891 47.4202 82.9828 45.5062C82.9062 44.9319 82.9828 44.3577 82.9828 43.8218ZM119.976 42.4054C119.976 43.7069 119.937 44.8937 119.555 45.9655C119.401 46.3866 119.248 46.8077 119.057 47.2288C118.598 48.2242 117.908 49.1812 117.334 50.1C116.951 50.6359 116.454 51.1336 115.841 51.4398C114.578 52.2054 113.162 52.6648 111.63 52.7031C110.061 52.7414 108.683 52.282 107.458 51.3632C106.96 50.9422 106.501 50.4828 106.041 49.9851C105.314 49.1812 105.008 48.1476 104.854 47.0757C104.548 43.8218 105.352 40.7975 107.037 37.9264C107.572 37.0077 108.223 36.1272 109.18 35.5912C109.257 35.5147 109.41 35.4764 109.525 35.3615C110.482 35.017 111.362 34.5959 112.358 34.4045C113.123 34.1748 113.889 34.2514 114.655 34.4428C115.19 34.5194 115.688 34.749 116.224 34.9787C117.258 35.3233 118.062 36.1272 118.598 37.0842C118.98 37.9647 119.401 38.9217 119.708 39.8788C119.976 40.7593 119.976 41.6397 119.976 42.4054ZM117.028 43.0179C117.028 42.635 117.066 42.1757 116.99 41.8311C116.224 38.9983 114.348 37.4288 112.549 41.1803C111.783 42.7116 111.324 44.664 111.324 45.7359C111.324 46.4249 111.515 47.1523 111.63 47.8413C111.898 49.0281 113.889 49.9085 114.961 48.6453C115.19 48.339 115.458 48.071 115.65 47.7265C115.841 47.3054 116.109 46.8077 116.301 46.3101C116.76 45.2765 117.028 44.1663 117.028 43.0179Z" fill="black"/>
<path d="M60.4702 58C45.7803 58 33.9402 68.89 34.0002 78.48C34.0602 88.07 45.9203 80.3 60.6002 80.3C75.2802 80.3 87.2302 88.05 87.1702 78.46C87.1202 68.87 75.1502 57.99 60.4702 58Z" fill="black"/>
<path d="M53.2286 18.6273C56.0486 17.5773 56.4086 11.2674 54.9086 7.01736C53.4086 2.76736 49.8986 0.177363 47.0686 1.23736C44.2486 2.29736 43.1786 6.59735 44.6786 10.8473C46.1786 15.0973 50.3986 19.6873 53.2286 18.6273Z" fill="black"/>
<path d="M67.7213 18.4909C70.7113 18.8209 73.5314 13.3009 73.8514 8.78092C74.1714 4.27092 72.0013 0.350913 69.0113 0.0209133C66.0213 -0.299087 63.3413 3.09093 63.0313 7.60093C62.7213 12.1109 64.7413 18.1609 67.7313 18.4909" fill="black"/>
<path d="M89.8959 5.40138C87.1459 4.03138 83.6159 6.28138 82.0159 10.4314C80.4159 14.5814 80.5959 20.9914 83.3459 22.3614C86.0959 23.7314 90.3759 19.5214 91.9759 15.3814C93.5759 11.2414 92.6359 6.77138 89.8859 5.40138" fill="black"/>
<path d="M27.1869 6.54143C24.5869 8.08143 24.2569 12.5114 26.4569 16.4314C28.6569 20.3514 33.5869 24.1114 36.1869 22.5714C38.7869 21.0314 38.0769 14.7514 35.8769 10.8314C33.6769 6.91141 29.7769 4.99142 27.1769 6.53142" fill="black"/>
</svg>
